<mxfile host="Electron" agent="Mozilla/5.0 (Windows NT 10.0; Win64; x64) AppleWebKit/537.36 (KHTML, like Gecko) draw.io/24.7.8 Chrome/128.0.6613.36 Electron/32.0.1 Safari/537.36" version="24.7.8">
  <diagram name="Page-1" id="W-Ubn08OOi5qVWLSzZ6S">
    <mxGraphModel dx="967" dy="1102" grid="1" gridSize="10" guides="1" tooltips="1" connect="1" arrows="1" fold="1" page="1" pageScale="1" pageWidth="850" pageHeight="1100" math="0" shadow="0">
      <root>
        <mxCell id="0" />
        <mxCell id="1" parent="0" />
        <mxCell id="CSLljQQJaK9njvRL7pTX-1" value="Start" style="rounded=1;whiteSpace=wrap;html=1;" vertex="1" parent="1">
          <mxGeometry x="365" y="50" width="120" height="60" as="geometry" />
        </mxCell>
        <mxCell id="CSLljQQJaK9njvRL7pTX-2" value="randint (1, 100)" style="rounded=0;whiteSpace=wrap;html=1;" vertex="1" parent="1">
          <mxGeometry x="365" y="160" width="120" height="60" as="geometry" />
        </mxCell>
        <mxCell id="CSLljQQJaK9njvRL7pTX-3" value="count" style="rounded=0;whiteSpace=wrap;html=1;" vertex="1" parent="1">
          <mxGeometry x="365" y="270" width="120" height="60" as="geometry" />
        </mxCell>
        <mxCell id="CSLljQQJaK9njvRL7pTX-4" value="while True" style="ellipse;whiteSpace=wrap;html=1;aspect=fixed;" vertex="1" parent="1">
          <mxGeometry x="385" y="380" width="80" height="80" as="geometry" />
        </mxCell>
        <mxCell id="CSLljQQJaK9njvRL7pTX-5" value="input a number" style="shape=card;whiteSpace=wrap;html=1;" vertex="1" parent="1">
          <mxGeometry x="365" y="480" width="125" height="70" as="geometry" />
        </mxCell>
        <mxCell id="CSLljQQJaK9njvRL7pTX-6" value="count += 1" style="rounded=0;whiteSpace=wrap;html=1;" vertex="1" parent="1">
          <mxGeometry x="370" y="600" width="120" height="60" as="geometry" />
        </mxCell>
        <mxCell id="CSLljQQJaK9njvRL7pTX-10" value="" style="edgeStyle=orthogonalEdgeStyle;rounded=0;orthogonalLoop=1;jettySize=auto;html=1;" edge="1" parent="1" source="CSLljQQJaK9njvRL7pTX-7" target="CSLljQQJaK9njvRL7pTX-9">
          <mxGeometry relative="1" as="geometry" />
        </mxCell>
        <mxCell id="CSLljQQJaK9njvRL7pTX-11" value="yes" style="edgeLabel;html=1;align=center;verticalAlign=middle;resizable=0;points=[];" vertex="1" connectable="0" parent="CSLljQQJaK9njvRL7pTX-10">
          <mxGeometry x="-0.4528" y="1" relative="1" as="geometry">
            <mxPoint as="offset" />
          </mxGeometry>
        </mxCell>
        <mxCell id="CSLljQQJaK9njvRL7pTX-14" value="" style="edgeStyle=orthogonalEdgeStyle;rounded=0;orthogonalLoop=1;jettySize=auto;html=1;" edge="1" parent="1" source="CSLljQQJaK9njvRL7pTX-7" target="CSLljQQJaK9njvRL7pTX-8">
          <mxGeometry relative="1" as="geometry" />
        </mxCell>
        <mxCell id="CSLljQQJaK9njvRL7pTX-17" value="no" style="edgeLabel;html=1;align=center;verticalAlign=middle;resizable=0;points=[];" vertex="1" connectable="0" parent="CSLljQQJaK9njvRL7pTX-14">
          <mxGeometry x="-0.0503" y="1" relative="1" as="geometry">
            <mxPoint as="offset" />
          </mxGeometry>
        </mxCell>
        <mxCell id="CSLljQQJaK9njvRL7pTX-7" value="try &amp;lt; number" style="rhombus;whiteSpace=wrap;html=1;" vertex="1" parent="1">
          <mxGeometry x="385" y="700" width="80" height="80" as="geometry" />
        </mxCell>
        <mxCell id="CSLljQQJaK9njvRL7pTX-18" value="" style="edgeStyle=orthogonalEdgeStyle;rounded=0;orthogonalLoop=1;jettySize=auto;html=1;" edge="1" parent="1" source="CSLljQQJaK9njvRL7pTX-8" target="CSLljQQJaK9njvRL7pTX-16">
          <mxGeometry relative="1" as="geometry" />
        </mxCell>
        <mxCell id="CSLljQQJaK9njvRL7pTX-19" value="yes" style="edgeLabel;html=1;align=center;verticalAlign=middle;resizable=0;points=[];" vertex="1" connectable="0" parent="CSLljQQJaK9njvRL7pTX-18">
          <mxGeometry x="-0.0416" y="2" relative="1" as="geometry">
            <mxPoint x="-1" as="offset" />
          </mxGeometry>
        </mxCell>
        <mxCell id="CSLljQQJaK9njvRL7pTX-23" value="" style="edgeStyle=orthogonalEdgeStyle;rounded=0;orthogonalLoop=1;jettySize=auto;html=1;" edge="1" parent="1" source="CSLljQQJaK9njvRL7pTX-8" target="CSLljQQJaK9njvRL7pTX-22">
          <mxGeometry relative="1" as="geometry" />
        </mxCell>
        <mxCell id="CSLljQQJaK9njvRL7pTX-24" value="no" style="edgeLabel;html=1;align=center;verticalAlign=middle;resizable=0;points=[];" vertex="1" connectable="0" parent="CSLljQQJaK9njvRL7pTX-23">
          <mxGeometry x="-0.0493" y="-1" relative="1" as="geometry">
            <mxPoint y="1" as="offset" />
          </mxGeometry>
        </mxCell>
        <mxCell id="CSLljQQJaK9njvRL7pTX-8" value="try &amp;gt; number" style="rhombus;whiteSpace=wrap;html=1;" vertex="1" parent="1">
          <mxGeometry x="220" y="700" width="80" height="80" as="geometry" />
        </mxCell>
        <mxCell id="CSLljQQJaK9njvRL7pTX-9" value="Too small" style="shape=document;whiteSpace=wrap;html=1;boundedLbl=1;" vertex="1" parent="1">
          <mxGeometry x="570" y="700" width="120" height="80" as="geometry" />
        </mxCell>
        <mxCell id="CSLljQQJaK9njvRL7pTX-12" value="" style="endArrow=none;html=1;rounded=0;" edge="1" parent="1">
          <mxGeometry width="50" height="50" relative="1" as="geometry">
            <mxPoint x="660" y="840" as="sourcePoint" />
            <mxPoint x="580" y="840" as="targetPoint" />
          </mxGeometry>
        </mxCell>
        <mxCell id="CSLljQQJaK9njvRL7pTX-13" value="" style="endArrow=none;html=1;rounded=0;" edge="1" parent="1">
          <mxGeometry width="50" height="50" relative="1" as="geometry">
            <mxPoint x="690" y="850" as="sourcePoint" />
            <mxPoint x="590" y="850" as="targetPoint" />
          </mxGeometry>
        </mxCell>
        <mxCell id="CSLljQQJaK9njvRL7pTX-16" value="Too big" style="shape=document;whiteSpace=wrap;html=1;boundedLbl=1;" vertex="1" parent="1">
          <mxGeometry x="30" y="700" width="120" height="80" as="geometry" />
        </mxCell>
        <mxCell id="CSLljQQJaK9njvRL7pTX-20" value="" style="endArrow=none;html=1;rounded=0;" edge="1" parent="1">
          <mxGeometry width="50" height="50" relative="1" as="geometry">
            <mxPoint x="130" y="850" as="sourcePoint" />
            <mxPoint x="50" y="850" as="targetPoint" />
          </mxGeometry>
        </mxCell>
        <mxCell id="CSLljQQJaK9njvRL7pTX-21" value="" style="endArrow=none;html=1;rounded=0;" edge="1" parent="1">
          <mxGeometry width="50" height="50" relative="1" as="geometry">
            <mxPoint x="150" y="870" as="sourcePoint" />
            <mxPoint x="50" y="870" as="targetPoint" />
          </mxGeometry>
        </mxCell>
        <mxCell id="CSLljQQJaK9njvRL7pTX-26" value="" style="edgeStyle=orthogonalEdgeStyle;rounded=0;orthogonalLoop=1;jettySize=auto;html=1;" edge="1" parent="1" source="CSLljQQJaK9njvRL7pTX-22" target="CSLljQQJaK9njvRL7pTX-25">
          <mxGeometry relative="1" as="geometry" />
        </mxCell>
        <mxCell id="CSLljQQJaK9njvRL7pTX-22" value="correct" style="shape=document;whiteSpace=wrap;html=1;boundedLbl=1;" vertex="1" parent="1">
          <mxGeometry x="200" y="850" width="120" height="80" as="geometry" />
        </mxCell>
        <mxCell id="CSLljQQJaK9njvRL7pTX-25" value="End" style="rounded=1;whiteSpace=wrap;html=1;" vertex="1" parent="1">
          <mxGeometry x="200" y="990" width="120" height="60" as="geometry" />
        </mxCell>
      </root>
    </mxGraphModel>
  </diagram>
</mxfile>
